<svg width="12" height="13" viewBox="0 0 12 13" fill="none" xmlns="http://www.w3.org/2000/svg">
<path d="M10.6667 5.33335C10.6667 8.96298 6.00004 12.0741 6.00004 12.0741C6.00004 12.0741 1.33337 8.96298 1.33337 5.33335C1.33337 4.09568 1.82504 2.90869 2.70021 2.03352C3.57538 1.15835 4.76236 0.666687 6.00004 0.666687C7.23772 0.666687 8.4247 1.15835 9.29987 2.03352C10.175 2.90869 10.6667 4.09568 10.6667 5.33335Z" stroke="black" stroke-linecap="round" stroke-linejoin="round"/>
<path d="M6.00001 6.88888C6.85912 6.88888 7.55557 6.19244 7.55557 5.33333C7.55557 4.47422 6.85912 3.77777 6.00001 3.77777C5.1409 3.77777 4.44446 4.47422 4.44446 5.33333C4.44446 6.19244 5.1409 6.88888 6.00001 6.88888Z" stroke="black" stroke-linecap="round" stroke-linejoin="round"/>
</svg>
