<svg width="40" height="34" viewBox="0 0 40 34" fill="none" xmlns="http://www.w3.org/2000/svg">
<g clip-path="url(#clip0_1062:857)">
<path d="M27.87 5.3L27.27 4.15C26.58 2.83 25.22 2 23.73 2H16.28C14.79 2 13.42 2.83 12.73 4.15L12.13 5.3C11.44 6.62 10.07 7.45 8.58 7.45H6C3.79 7.45 2 9.24 2 11.45V27.04C2 29.25 3.79 31.04 6 31.04H34C36.21 31.04 38 29.25 38 27.04V11.45C38 9.24 36.21 7.45 34 7.45H31.42C29.93 7.45 28.56 6.62 27.87 5.3Z" stroke="#EAEAEA" stroke-width="4" stroke-miterlimit="10" stroke-linecap="round" stroke-linejoin="round"/>
<path d="M20 24.6C23.7003 24.6 26.7 21.6003 26.7 17.9C26.7 14.1997 23.7003 11.2 20 11.2C16.2997 11.2 13.3 14.1997 13.3 17.9C13.3 21.6003 16.2997 24.6 20 24.6Z" stroke="#EAEAEA" stroke-width="4" stroke-miterlimit="10" stroke-linecap="round" stroke-linejoin="round"/>
</g>
<defs>
<clipPath id="clip0_1062:857">
<rect width="40" height="33.04" fill="white"/>
</clipPath>
</defs>
</svg>
