<svg width="23" height="19" viewBox="0 0 23 19" fill="none" xmlns="http://www.w3.org/2000/svg">
<path d="M20.0938 3.34766H16.7734L15.9824 1.13086C15.9278 0.97917 15.8276 0.848051 15.6957 0.755414C15.5637 0.662777 15.4064 0.613139 15.2451 0.613282H7.75488C7.42529 0.613282 7.12988 0.820801 7.02002 1.13086L6.22656 3.34766H2.90625C1.82715 3.34766 0.953125 4.22168 0.953125 5.30078V16.4336C0.953125 17.5127 1.82715 18.3867 2.90625 18.3867H20.0938C21.1729 18.3867 22.0469 17.5127 22.0469 16.4336V5.30078C22.0469 4.22168 21.1729 3.34766 20.0938 3.34766ZM11.5 14.4805C9.3418 14.4805 7.59375 12.7324 7.59375 10.5742C7.59375 8.41602 9.3418 6.66797 11.5 6.66797C13.6582 6.66797 15.4062 8.41602 15.4062 10.5742C15.4062 12.7324 13.6582 14.4805 11.5 14.4805ZM9.15625 10.5742C9.15625 11.1958 9.40318 11.792 9.84272 12.2315C10.2823 12.671 10.8784 12.918 11.5 12.918C12.1216 12.918 12.7177 12.671 13.1573 12.2315C13.5968 11.792 13.8438 11.1958 13.8438 10.5742C13.8438 9.95262 13.5968 9.35647 13.1573 8.91694C12.7177 8.4774 12.1216 8.23047 11.5 8.23047C10.8784 8.23047 10.2823 8.4774 9.84272 8.91694C9.40318 9.35647 9.15625 9.95262 9.15625 10.5742Z" fill="#AEAEAE"/>
</svg>
