<svg width="24" height="24" viewBox="0 0 24 24" fill="none" xmlns="http://www.w3.org/2000/svg">
<path d="M19 11C19 16.4444 12 21.1111 12 21.1111C12 21.1111 5 16.4444 5 11C5 9.14348 5.7375 7.36301 7.05025 6.05025C8.36301 4.7375 10.1435 4 12 4C13.8565 4 15.637 4.7375 16.9497 6.05025C18.2625 7.36301 19 9.14348 19 11Z" stroke="black" stroke-linecap="round" stroke-linejoin="round"/>
<path d="M12 13.3334C13.2887 13.3334 14.3334 12.2887 14.3334 11.0001C14.3334 9.71142 13.2887 8.66675 12 8.66675C10.7114 8.66675 9.66669 9.71142 9.66669 11.0001C9.66669 12.2887 10.7114 13.3334 12 13.3334Z" stroke="black" stroke-linecap="round" stroke-linejoin="round"/>
</svg>

