<svg width="33" height="40" viewBox="0 0 33 40" fill="none" xmlns="http://www.w3.org/2000/svg">
<g clip-path="url(#clip0_738_1255)">
<path d="M28.05 4.98C24.96 1.77 20.83 0 16.4 0C16.35 0 16.31 0.01 16.27 0.01C16.22 0.01 16.18 0 16.13 0C11.7 0 7.57001 1.77 4.48001 4.98C1.47001 8.13 -0.159989 12.36 0.0100111 16.6C0.580011 30.31 14.46 39.31 15.05 39.68C15.39 39.9 15.76 40 16.13 40C16.18 40 16.22 39.99 16.26 39.98C16.31 39.98 16.35 40 16.39 40C16.76 40 17.13 39.9 17.46 39.69C18.05 39.31 31.93 30.32 32.5 16.61C32.69 12.36 31.06 8.13 28.05 4.98Z" fill="#0BFF0B"/>
<path d="M17.6966 24.315C22.5813 23.5222 25.8984 18.9198 25.1057 14.0352C24.3129 9.15052 19.7105 5.83339 14.8259 6.62613C9.94123 7.41888 6.62409 12.0213 7.41684 16.9059C8.20958 21.7906 12.812 25.1077 17.6966 24.315Z" fill="#1B191C"/>
</g>
<defs>
<clipPath id="clip0_738_1255">
<rect width="32.53" height="40" fill="white"/>
</clipPath>
</defs>
</svg>


