<svg width="18" height="19" viewBox="0 0 18 19" fill="none" xmlns="http://www.w3.org/2000/svg">
<g clip-path="url(#clip0_1062_1743)">
<path d="M9.44806 19.0004C9.0882 19.0004 8.72834 18.8585 8.45316 18.5818L0.416307 10.5078C0.148177 10.2382 0 9.8764 0 9.50037C0 9.12435 0.148177 8.76251 0.416307 8.5L8.45316 0.41897C9.00353 -0.134428 9.89965 -0.134428 10.45 0.41897C11.0004 0.972368 11.0004 1.87341 10.45 2.42681L3.40808 9.50747L10.45 16.5881C11.0004 17.1415 11.0004 18.0426 10.45 18.596C10.1748 18.8656 9.80792 19.0004 9.44806 19.0004Z" fill="#0BFF0B"/>
<path d="M16.5888 10.919H1.74996C0.97379 10.919 0.338745 10.2804 0.338745 9.49999C0.338745 8.71956 0.97379 8.08102 1.74996 8.08102H16.5888C17.365 8.08102 18.0001 8.71956 18.0001 9.49999C18.0001 10.2804 17.3721 10.919 16.5888 10.919Z" fill="#0BFF0B"/>
</g>
<defs>
<clipPath id="clip0_1062_1743">
<rect width="18" height="19" fill="white"/>
</clipPath>
</defs>
</svg>
