<svg width="41" height="39" viewBox="0 0 41 39" fill="none" xmlns="http://www.w3.org/2000/svg">
<path d="M16.7423 16.2241L3.6923 24.1541C2.0323 25.1641 1.5023 27.3241 2.5123 28.9741L4.8523 32.8341C5.8623 34.4941 8.0223 35.0241 9.6723 34.0141L22.8523 26.0141L37.0223 27.6541C37.7523 27.7341 38.2523 26.9541 37.8723 26.3241L23.3623 2.42408C22.9823 1.79408 22.0423 1.88408 21.7923 2.57408L18.6123 11.1741" stroke="black" stroke-width="4" stroke-miterlimit="10" stroke-linecap="round" stroke-linejoin="round"/>
<path d="M16.2423 34.8741L16.7323 35.6841C17.5223 36.9841 19.2223 37.4041 20.5223 36.6141C21.8223 35.8241 22.2423 34.1241 21.4523 32.8241L18.8123 28.4741L14.0923 31.3441" stroke="black" stroke-width="3" stroke-miterlimit="10" stroke-linecap="round" stroke-linejoin="round"/>
<path d="M16.7923 16.2241L22.8523 26.0041" stroke="black" stroke-width="4" stroke-miterlimit="10" stroke-linecap="round" stroke-linejoin="round"/>
</svg>
