<svg width="24" height="25" viewBox="0 0 24 25" fill="none" xmlns="http://www.w3.org/2000/svg">
<path d="M22.7722 22.0813H1.3911C0.911735 22.0813 0.475386 21.8048 0.272576 21.3684C0.069766 20.9321 0.143515 20.422 0.450803 20.0532C2.05484 18.1726 2.87223 15.5976 2.87223 12.4018V9.79596C2.87223 8.55451 3.09962 7.3438 3.53597 6.20069C3.7818 5.56768 4.49471 5.25425 5.12772 5.50008C5.76074 5.74591 6.07417 6.45881 5.82834 7.09183C5.49647 7.95223 5.32439 8.8618 5.32439 9.79596V12.4018C5.32439 15.1858 4.77741 17.6072 3.70191 19.6169H20.4491C19.3674 17.6011 18.8266 15.1858 18.8266 12.4018V9.79596C18.8266 5.86267 15.8029 2.65459 12.0786 2.65459C10.2226 2.65459 8.4956 3.4351 7.21113 4.85477C6.75635 5.35872 5.98198 5.3956 5.47803 4.94081C4.97408 4.47988 4.9372 3.70551 5.39199 3.20156C7.12509 1.29023 9.55881 0.196289 12.0786 0.196289C17.155 0.196289 21.2849 4.50446 21.2849 9.8021V12.4079C21.2849 15.6037 22.0962 18.1726 23.7063 20.0594C24.0198 20.422 24.0874 20.9382 23.8846 21.3746C23.6879 21.7986 23.2516 22.0813 22.7722 22.0813Z" fill="black"/>
<path d="M12.0786 24.8035C10.5483 24.8035 9.30688 23.5621 9.30688 22.0318C9.30688 21.534 9.44209 21.0485 9.69407 20.6183C10.1243 19.8869 11.0707 19.6472 11.7959 20.0774C11.8942 20.1328 11.9803 20.2004 12.0602 20.2741C12.1401 20.2004 12.2261 20.1328 12.3183 20.0713C13.0435 19.6227 13.9838 19.8501 14.4324 20.5691C14.7029 21.0055 14.8442 21.5094 14.8442 22.0256C14.8565 23.5621 13.6089 24.8035 12.0786 24.8035ZM11.8266 22.1916H11.8328H11.8266Z" fill="black"/>
</svg>
