<svg width="23" height="21" viewBox="0 0 23 21" fill="none" xmlns="http://www.w3.org/2000/svg">
<path d="M21.8205 2.40275H1.17949C0.530769 2.40275 0 1.86213 0 1.20137C0 0.540618 0.530769 0 1.17949 0H21.8205C22.4692 0 23 0.540618 23 1.20137C23 1.86213 22.4692 2.40275 21.8205 2.40275Z" fill="black"/>
<path d="M21.8205 8.6019H1.17949C0.530769 8.6019 0 8.06129 0 7.40053C0 6.73978 0.530769 6.19916 1.17949 6.19916H21.8205C22.4692 6.19916 23 6.73978 23 7.40053C23 8.06129 22.4692 8.6019 21.8205 8.6019Z" fill="black"/>
<path d="M21.8205 14.8009H1.17949C0.530769 14.8009 0 14.2603 0 13.5995C0 12.9388 0.530769 12.3981 1.17949 12.3981H21.8205C22.4692 12.3981 23 12.9388 23 13.5995C23 14.2603 22.4692 14.8009 21.8205 14.8009Z" fill="black"/>
<path d="M21.8205 21H1.17949C0.530769 21 0 20.4594 0 19.7987C0 19.1379 0.530769 18.5973 1.17949 18.5973H21.8205C22.4692 18.5973 23 19.1379 23 19.7987C23 20.4594 22.4692 21 21.8205 21Z" fill="black"/>
</svg>
