<svg width="64" height="20" viewBox="0 0 64 20" fill="none" xmlns="http://www.w3.org/2000/svg">
<path d="M39.8565 16.8093C43.6874 12.9785 43.6874 6.76739 39.8565 2.93651C36.0256 -0.89437 29.8145 -0.89437 25.9837 2.93651C22.1528 6.76739 22.1528 12.9785 25.9837 16.8093C29.8145 20.6402 36.0256 20.6402 39.8565 16.8093Z" fill="#1B191C"/>
<path d="M18.8509 11.9089H21.6502V4.98701H14.3852L11.9841 1.2661C11.9144 1.15807 11.8188 1.06925 11.7059 1.00774C11.593 0.946229 11.4665 0.914001 11.338 0.914001C11.2094 0.914001 11.0829 0.946229 10.97 1.00774C10.8571 1.06925 10.7615 1.15807 10.6918 1.2661L8.29076 4.98701H0.884512V11.9089H3.82383L0.122425 17.6475C0.0476657 17.7637 0.0055565 17.8979 0.000513151 18.036C-0.0045302 18.1741 0.0276782 18.3111 0.0937605 18.4324C0.159843 18.5538 0.257364 18.6551 0.376098 18.7258C0.494831 18.7965 0.630402 18.834 0.768592 18.8343H21.9062C22.0445 18.8344 22.1803 18.7972 22.2993 18.7265C22.4182 18.6559 22.516 18.5545 22.5821 18.433C22.6483 18.3115 22.6804 18.1744 22.6752 18.0362C22.6699 17.8979 22.6275 17.7637 22.5523 17.6475L18.8509 11.9089Z" fill="#1B191C"/>
<path d="M63.2012 8.13278V1.21088H59.9669H47.0448H47.0436H43.8093V8.13278H46.4606V11.9088H43.8093V18.8307H47.0448H59.9669H63.2012V11.9088H60.55V8.13278H63.2012Z" fill="#1B191C"/>
</svg>
