<svg width="12" height="12" viewBox="0 0 12 12" fill="none" xmlns="http://www.w3.org/2000/svg">
<path d="M6 0C5.18182 0 4.54261 0.315476 4.08239 0.946429C3.62216 1.57738 3.39205 2.38393 3.39205 3.36607C3.38636 4.58631 3.76136 5.55357 4.51705 6.26786C4.61364 6.3631 4.64773 6.48512 4.61932 6.63393L4.4233 7.0625C4.3608 7.20536 4.26847 7.31696 4.14631 7.39732C4.02415 7.47768 3.76705 7.59226 3.375 7.74107C3.35795 7.74702 2.99858 7.86905 2.29688 8.10714C1.59517 8.34524 1.22159 8.47619 1.17614 8.5C0.698864 8.70833 0.386364 8.9256 0.238636 9.15179C0.0795455 9.52679 0 10.4762 0 12H12C12 10.4762 11.9205 9.52679 11.7614 9.15179C11.6136 8.9256 11.3011 8.70833 10.8239 8.5C10.7784 8.47619 10.4048 8.34524 9.70313 8.10714C9.00142 7.86905 8.64205 7.74702 8.625 7.74107C8.23295 7.59226 7.97585 7.47768 7.85369 7.39732C7.73153 7.31696 7.6392 7.20536 7.5767 7.0625L7.38068 6.63393C7.35227 6.48512 7.38636 6.3631 7.48295 6.26786C8.23864 5.55357 8.61364 4.58631 8.60795 3.36607C8.60795 2.38393 8.37784 1.57738 7.91761 0.946429C7.45739 0.315476 6.81818 0 6 0Z" fill="black"/>
</svg>